<?xml version="1.0" encoding="UTF-8" standalone="no"?>
<!-- Created with Inkscape (http://www.inkscape.org/) -->

<svg
   width="23.436001mm"
   height="12.982212mm"
   viewBox="0 0 23.436001 12.982212"
   version="1.1"
   id="svg5"
   inkscape:version="1.3 (0e150ed, 2023-07-21)"
   sodipodi:docname="karp.svg"
   xml:space="preserve"
   inkscape:export-filename="tmp.png"
   inkscape:export-xdpi="171.03999"
   inkscape:export-ydpi="171.03999"
   xmlns:inkscape="http://www.inkscape.org/namespaces/inkscape"
   xmlns:sodipodi="http://sodipodi.sourceforge.net/DTD/sodipodi-0.dtd"
   xmlns="http://www.w3.org/2000/svg"
   xmlns:svg="http://www.w3.org/2000/svg"><sodipodi:namedview
     id="namedview7"
     pagecolor="#ffffff"
     bordercolor="#000000"
     borderopacity="0.25"
     inkscape:showpageshadow="2"
     inkscape:pageopacity="0.0"
     inkscape:pagecheckerboard="0"
     inkscape:deskcolor="#d1d1d1"
     inkscape:document-units="mm"
     showgrid="false"
     inkscape:zoom="1.8816409"
     inkscape:cx="197.69978"
     inkscape:cy="174.84739"
     inkscape:window-width="1392"
     inkscape:window-height="847"
     inkscape:window-x="2419"
     inkscape:window-y="157"
     inkscape:window-maximized="0"
     inkscape:current-layer="layer1"
     showguides="true"><inkscape:grid
       type="xygrid"
       id="grid13315"
       originx="0"
       originy="0"
       spacingy="1"
       spacingx="1"
       units="mm"
       visible="false" /><sodipodi:guide
       position="-0.13918717,62.151293"
       orientation="1,0"
       id="guide13317"
       inkscape:locked="false" /><sodipodi:guide
       position="-13.368355,58.182543"
       orientation="0,-1"
       id="guide13319"
       inkscape:locked="false" /><sodipodi:guide
       position="103.04831,-35.744543"
       orientation="1,0"
       id="guide4551"
       inkscape:locked="false" /></sodipodi:namedview><defs
     id="defs2"><rect
       x="165.33238"
       y="165.66167"
       width="170.87849"
       height="72.536377"
       id="rect827-2" /></defs><g
     inkscape:label="Layer 1"
     inkscape:groupmode="layer"
     id="layer1"
     transform="translate(-10.72252,-55.783663)"><path
       style="fill:#f0581a;fill-opacity:1;stroke-width:0.0112058"
       d="m 23.533261,67.917771 c -0.821267,-0.20932 -1.195267,-1.116574 -1.381286,-1.856893 -0.183558,-0.704281 1.556116,-0.985069 0.392207,-0.839313 -1.067423,0.18072 -2.357351,-0.52305 -3.035198,0.59416 -0.589863,0.65776 -1.782918,1.101366 -2.048624,-0.06177 -0.418989,-0.618329 -0.609521,-1.426312 0.421219,-1.442505 0.263754,-0.328383 -0.99326,-0.370079 -1.31697,-0.426329 -1.036254,-0.11474 -1.768767,0.726874 -2.64291,1.119949 -0.633269,0.332563 -1.286446,0.639185 -1.968706,0.854449 -0.714995,-0.430805 0.245645,-1.45031 0.499069,-2.018887 0.60987,-0.619232 0.917745,-1.563862 0.348372,-2.314585 -0.370563,-0.81454 -1.001978,-1.550817 -1.051498,-2.478572 0.937072,0.02223 1.537462,0.89264 2.316693,1.302422 0.703135,0.455041 1.404497,1.122823 2.305378,0.839281 0.552617,-0.07092 1.915758,-0.16069 0.93879,-0.778527 -0.782292,-0.880152 0.958636,-1.184157 1.470801,-1.595004 1.096675,-0.502602 2.223696,-0.920872 3.393648,-1.201469 0.843574,0.02444 1.917727,-1.142704 2.459718,-0.06518 0.333683,0.70139 0.593248,1.764904 1.593561,1.585761 1.516417,0.115205 2.899986,0.806552 4.152094,1.628183 1.043074,0.570061 2.014743,1.330318 2.757846,2.253712 0.09719,0.724658 -0.797662,1.269056 -1.425703,1.246874 -0.963541,0.371655 -1.963873,0.627003 -2.991604,0.750488 -1.402779,0.206769 -2.820989,0.293885 -4.238108,0.310167 -0.133224,0.814213 0.348855,1.82978 -0.311286,2.4901 -0.189475,0.113907 -0.422624,0.134997 -0.637503,0.103488 z"
       id="path674-1"
       inkscape:export-filename="logotyper/karp_slogan.svg"
       inkscape:export-xdpi="275.48999"
       inkscape:export-ydpi="275.48999" /></g></svg>
