<?xml version="1.0" encoding="UTF-8" standalone="no"?>
<!-- Created with Inkscape (http://www.inkscape.org/) -->

<svg
   width="21.424mm"
   height="17.290001mm"
   viewBox="0 0 21.424 17.290001"
   version="1.1"
   id="svg5"
   inkscape:version="1.3 (0e150ed, 2023-07-21)"
   sodipodi:docname="mink.svg"
   xml:space="preserve"
   inkscape:export-filename="tmp.png"
   inkscape:export-xdpi="171.03999"
   inkscape:export-ydpi="171.03999"
   xmlns:inkscape="http://www.inkscape.org/namespaces/inkscape"
   xmlns:sodipodi="http://sodipodi.sourceforge.net/DTD/sodipodi-0.dtd"
   xmlns="http://www.w3.org/2000/svg"
   xmlns:svg="http://www.w3.org/2000/svg"><sodipodi:namedview
     id="namedview7"
     pagecolor="#ffffff"
     bordercolor="#000000"
     borderopacity="0.25"
     inkscape:showpageshadow="2"
     inkscape:pageopacity="0.0"
     inkscape:pagecheckerboard="0"
     inkscape:deskcolor="#d1d1d1"
     inkscape:document-units="mm"
     showgrid="false"
     inkscape:zoom="0.96403488"
     inkscape:cx="274.88632"
     inkscape:cy="229.24482"
     inkscape:window-width="1392"
     inkscape:window-height="847"
     inkscape:window-x="2539"
     inkscape:window-y="184"
     inkscape:window-maximized="0"
     inkscape:current-layer="layer1"
     showguides="true"><inkscape:grid
       type="xygrid"
       id="grid13315"
       originx="0"
       originy="0"
       spacingy="1"
       spacingx="1"
       units="mm"
       visible="false" /><sodipodi:guide
       position="-0.14421493,91.980003"
       orientation="1,0"
       id="guide13317"
       inkscape:locked="false" /><sodipodi:guide
       position="-13.373382,88.011254"
       orientation="0,-1"
       id="guide13319"
       inkscape:locked="false" /><sodipodi:guide
       position="103.04328,-5.9158333"
       orientation="1,0"
       id="guide4551"
       inkscape:locked="false" /></sodipodi:namedview><defs
     id="defs2"><rect
       x="165.33238"
       y="165.66167"
       width="170.87849"
       height="72.536377"
       id="rect827-6-7" /></defs><g
     inkscape:label="Layer 1"
     inkscape:groupmode="layer"
     id="layer1"
     transform="translate(-10.727548,-81.304586)"><path
       d="m 24.415541,97.679124 c 0.213233,-0.105149 0.601077,-0.488474 0.795343,-0.786077 0.194902,-0.298569 0.235854,-0.491474 0.151448,-0.71345 -0.01942,-0.05126 -0.04132,-0.183739 -0.0485,-0.294511 l -0.01307,-0.201399 0.257802,-0.09074 c 0.141784,-0.04988 0.35338,-0.145457 0.470216,-0.212304 0.116836,-0.06681 0.174481,-0.08043 0.261271,-0.121539 0.363567,-0.172356 0.541803,-0.23924 1.086873,-0.525018 0.139134,-0.07298 0.357337,-0.216518 0.484894,-0.319045 0.127557,-0.102517 0.354116,-0.272682 0.503465,-0.378134 0.32234,-0.227608 0.982516,-0.874947 1.22609,-1.202256 0.24282,-0.326296 0.505738,-0.768886 0.732527,-1.233277 0.146303,-0.299545 0.22724,-0.539236 0.330328,-0.978236 0.166364,-0.708453 0.203911,-1.272306 0.138204,-2.074966 -0.05126,-0.625786 -0.138793,-0.93538 -0.530401,-1.875232 -0.196439,-0.471422 -0.684664,-1.365831 -0.977417,-1.790614 -0.503125,-0.729951 -1.105315,-0.842084 -1.378697,-0.256624 -0.07325,0.156886 -0.12244,0.212506 -0.119836,0.671367 0,0 -0.01067,0.320213 0.04215,0.555054 0.05282,0.234832 0.389583,0.834032 0.389583,0.834032 0.581181,1.244145 0.676464,1.550528 0.744757,2.394461 0.03294,0.4067 0.0277,0.544868 -0.0369,0.969798 -0.09157,0.602871 -0.163152,0.759214 -0.786399,1.717463 -0.761607,1.170948 -1.119358,1.455152 -1.699066,1.349773 -0.422851,-0.07684 -0.742632,-0.308554 -0.971068,-0.703548 -0.08835,-0.152736 -0.241274,-0.364985 -0.339898,-0.471661 -0.09862,-0.106677 -0.248746,-0.279722 -0.333631,-0.384549 -0.14714,-0.181706 -0.669038,-0.648268 -1.240557,-1.108914 -0.145566,-0.117342 -0.364284,-0.300639 -0.486035,-0.407316 -0.12175,-0.106676 -0.376405,-0.298118 -0.565886,-0.425436 -0.484342,-0.325422 -0.718116,-0.521143 -1.131929,-0.947665 -0.352589,-0.363429 -0.728055,-0.867704 -0.900907,-1.210023 -0.256375,-0.507633 -0.602338,-1.013868 -0.93572,-1.369043 -0.593172,-0.632044 -1.1108,-0.973819 -1.774749,-1.17196 -0.879741,-0.262504 -1.923657,-0.698496 -2.414698,-1.00843 -0.134165,-0.08466 -0.145521,-0.104836 -0.123738,-0.219445 0.01316,-0.06948 0.04767,-0.173322 0.07666,-0.23093 0.07933,-0.15777 0.06368,-0.33504 -0.04583,-0.522018 -0.121603,-0.207482 -0.288078,-0.299489 -0.541573,-0.299333 -0.258584,1.47e-4 -0.452933,0.106456 -0.725487,0.396743 -0.198656,0.211595 -0.249951,0.243721 -0.509483,0.319127 -0.158727,0.04611 -0.338555,0.127475 -0.399632,0.180785 -0.06101,0.05328 -0.22551,0.188902 -0.365417,0.301321 -0.317425,0.255041 -0.611513,0.578172 -0.688115,0.756067 -0.03212,0.07463 -0.06019,0.241872 -0.0623,0.371555 -0.0055,0.316349 0.141932,0.563798 0.441964,0.74369 0.253246,0.151852 0.327668,0.15453 0.765877,0.02752 0.187006,-0.0542 0.427295,-0.09904 0.533944,-0.09963 0.208807,-0.0018 0.55385,0.10456 0.811789,0.248728 0.190292,0.106364 0.759279,0.566816 0.759279,0.61443 0,0.02954 -0.109851,0.03929 -0.552782,0.04887 -0.06939,0.0018 -0.373285,-0.01169 -0.675443,-0.02936 -0.475774,-0.02779 -0.567543,-0.02347 -0.684959,0.0323 -0.289016,0.137156 -0.254589,0.462799 0.08006,0.757383 0.335858,0.295624 0.839516,0.467768 1.600387,0.546957 0.224019,0.02337 0.485852,0.07224 0.581853,0.108719 0.240326,0.09129 0.590651,0.32107 0.870686,0.571086 0.129177,0.115309 0.443013,0.349423 0.697428,0.52026 0.272323,0.182855 0.501422,0.367791 0.557052,0.44963 0.113992,0.167763 0.481121,0.942125 0.549285,1.158625 0.04702,0.149248 0.308259,0.741021 0.553554,1.253947 0.0646,0.134946 0.221755,0.386159 0.349359,0.558266 0.383895,0.517775 0.431896,0.624378 0.343708,0.763687 -0.0277,0.04371 -0.09009,0.01877 -0.316597,-0.126076 -0.331745,-0.212248 -0.478729,-0.231298 -0.620495,-0.08043 -0.07951,0.08466 -0.09355,0.137063 -0.09092,0.339428 0.0018,0.13769 0.02927,0.288732 0.0646,0.355681 0.06874,0.130244 0.260811,0.317848 0.43658,0.426476 0.06405,0.03957 0.231354,0.164552 0.371877,0.277762 0.140515,0.11322 0.355377,0.251581 0.477477,0.307487 0.272673,0.124824 0.43082,0.10605 0.636756,-0.07565 0.07877,-0.06939 0.21062,-0.165085 0.293084,-0.212497 l 0.14992,-0.08623 0.339511,0.288768 c 0.631805,0.53734 1.297107,0.902812 1.914297,1.051489 0.222989,0.05374 0.429164,0.09771 0.458161,0.09776 0.03046,2.8e-5 0.05604,0.0473 0.06055,0.11172 0.0037,0.06147 0.06341,0.236046 0.131367,0.388092 0.118042,0.263967 0.121631,0.286339 0.07951,0.496038 -0.08779,0.437391 -0.03322,0.749028 0.154401,0.880432 0.111664,0.07822 0.174665,0.07841 0.332186,7.45e-4 z"
       fill="#d4d4d8"
       stroke-width="0.733062"
       id="path3563-4"
       style="fill:#f0581a;fill-opacity:1" /></g></svg>
