<?xml version="1.0" encoding="UTF-8" standalone="no"?>
<!-- Created with Inkscape (http://www.inkscape.org/) -->

<svg
   width="17.757999mm"
   height="15.089493mm"
   viewBox="0 0 17.757999 15.089493"
   version="1.1"
   id="svg5"
   inkscape:version="1.3 (0e150ed, 2023-07-21)"
   sodipodi:docname="sparv.svg"
   xml:space="preserve"
   inkscape:export-filename="tmp.png"
   inkscape:export-xdpi="171.03999"
   inkscape:export-ydpi="171.03999"
   xmlns:inkscape="http://www.inkscape.org/namespaces/inkscape"
   xmlns:sodipodi="http://sodipodi.sourceforge.net/DTD/sodipodi-0.dtd"
   xmlns="http://www.w3.org/2000/svg"
   xmlns:svg="http://www.w3.org/2000/svg"><sodipodi:namedview
     id="namedview7"
     pagecolor="#ffffff"
     bordercolor="#000000"
     borderopacity="0.25"
     inkscape:showpageshadow="2"
     inkscape:pageopacity="0.0"
     inkscape:pagecheckerboard="0"
     inkscape:deskcolor="#d1d1d1"
     inkscape:document-units="mm"
     showgrid="false"
     inkscape:zoom="1.8816409"
     inkscape:cx="134.98856"
     inkscape:cy="69.620085"
     inkscape:window-width="1392"
     inkscape:window-height="847"
     inkscape:window-x="2495"
     inkscape:window-y="98"
     inkscape:window-maximized="0"
     inkscape:current-layer="layer1"
     showguides="true"><inkscape:grid
       type="xygrid"
       id="grid13315"
       originx="0"
       originy="0"
       spacingy="1"
       spacingx="1"
       units="mm"
       visible="false" /><sodipodi:guide
       position="-0.11890059,176.42844"
       orientation="1,0"
       id="guide13317"
       inkscape:locked="false" /><sodipodi:guide
       position="-13.348067,172.45969"
       orientation="0,-1"
       id="guide13319"
       inkscape:locked="false" /><sodipodi:guide
       position="103.06859,78.532598"
       orientation="1,0"
       id="guide4551"
       inkscape:locked="false" /></sodipodi:namedview><defs
     id="defs2"><rect
       x="165.33238"
       y="165.66167"
       width="170.87849"
       height="72.536377"
       id="rect827-6-9-4-1-6" /></defs><g
     inkscape:label="Layer 1"
     inkscape:groupmode="layer"
     id="layer1"
     transform="translate(-10.702234,-167.95353)"><path
       id="path3151"
       style="fill:#f0581a;fill-opacity:1;stroke-width:0.0206747"
       d="m 24.81035,168.8093 c -0.767276,-0.0785 -1.490064,0.2282 -1.966272,0.83374 -0.570183,0.48901 -0.927823,1.22498 -1.667216,1.49808 -0.873534,0.34608 -1.634417,1.01403 -1.978151,1.90097 -0.562873,0.44796 -0.315121,1.23696 -1.0528,1.42378 -0.761387,0.4197 -0.952425,1.35017 -1.595179,1.89567 -0.421069,0.53245 -0.748897,0.9688 -1.392845,1.25305 -0.170955,0.16663 -0.523674,0.50137 -0.06476,0.44233 -0.822906,0.58544 -1.758617,0.9941 -2.604434,1.54767 -0.360553,0.17924 -1.081101,0.69429 -0.939916,0.97708 0.856936,-0.25309 1.566996,-0.86166 2.452616,-1.02929 0.860983,-0.25987 1.725407,-0.50412 2.59188,-0.73992 0.922542,-0.35132 -1.286148,1.15161 -0.09922,0.93727 0.606737,-0.0626 1.169943,-0.72584 1.738455,-0.5521 0.702216,0.27922 1.642509,0.0161 2.212504,0.61077 0.302529,0.45947 0.87511,1.18639 0.818143,1.61581 -0.474525,-0.0584 -1.357642,-0.37008 -1.375238,0.40435 0.459154,-0.40919 1.07185,0.2334 1.679307,0.0205 0.610231,0.12821 1.401653,0.55448 1.950141,0.19634 0.338127,-0.005 1.022004,0.0113 1.100632,-0.12097 -0.118919,-0.34631 -1.534434,-0.27773 -0.738551,-0.46079 0.322446,-0.0722 1.310613,0.29223 0.658848,-0.17491 -0.682195,-0.27698 -1.655536,0.0523 -2.113,-0.68173 -0.460069,-0.47694 -0.933965,-1.04433 0.0097,-1.11862 1.103304,-0.40702 2.308987,-0.76807 3.076236,-1.72239 0.801356,-0.75345 1.396773,-1.74344 1.652236,-2.81726 0.113479,-0.79269 -0.16769,-1.57024 -0.203781,-2.35831 -0.347188,-0.77467 0.252234,-1.22303 0.918441,-1.43804 0.411662,-0.63634 -1.147616,-0.5655 -1.248272,-1.24107 -0.40725,-0.60857 -1.055177,-1.11213 -1.819509,-1.10201 z m -3.657683,10.85982 c 0.288631,0.34304 0.831422,0.87705 0.787854,1.30226 -0.392033,-0.1509 -0.647971,-0.83457 -0.88927,-1.19595 0.01041,-0.0475 0.04442,-0.10858 0.101416,-0.10631 z m 1.10872,1.61533 c 0.278366,0.0634 1.051648,0.42898 0.290876,0.34648 -0.155179,-0.0153 -0.752977,-0.3413 -0.290876,-0.34648 z" /></g></svg>
