<svg xmlns="http://www.w3.org/2000/svg" xmlns:xlink="http://www.w3.org/1999/xlink" version="1.1" id="Layer_1" x="0px" y="0px" viewBox="0 0 51.7 46.7" style="enable-background:new 0 0 51.7 46.7;" xml:space="preserve">
<style type="text/css">
	.st0{fill:#00a8c6;}
	.st1{fill:#f9f2e7;}
	.st2{fill:#00a8c6;}
	.st3{fill:#00a8c6;}
	.st4{fill:none;}
</style>
<g id="Head">
	<g>
		<path class="st0" d="M41.1,8.7C41.6,6,42,2.9,42,0.3c-2.3,0-5.1,3.7-6.8,6.1c-0.4,0-0.8-0.1-1.2-0.1c-3.1,0-5.9,1.2-8,3.1    c-2.1-1.9-4.9-3.1-8-3.1c-0.4,0-0.8,0-1.2,0.1C15.1,4,12.3,0.3,10,0.3c0,2.6,0.4,5.7,0.9,8.4C7.9,10.9,6,14.4,6,18.3    c0,6.6,5.4,12,12,12c3.1,0,5.9-1.2,8-3.1c2.1,1.9,4.9,3.1,8,3.1c6.6,0,12-5.4,12-12C46,14.4,44.1,10.9,41.1,8.7z" fill="#00a8c6"/>
	</g>
</g>
<g id="Face">
	<g>
		<path class="st1" d="M34,10.3c-4.4,0-8,3.6-8,8c0-4.4-3.6-8-8-8s-8,3.6-8,8c0,4.4,3.6,8,8,8c1.9,0,3.7-0.7,5.1-1.8l2.9,5.8    l2.9-5.8c1.4,1.1,3.2,1.8,5.1,1.8c4.4,0,8-3.6,8-8C42,13.9,38.4,10.3,34,10.3z" fill="#00a8c6"/>
	</g>
</g>
<g id="Eyes">
	<g>
		<g>
			<path class="st2" d="M34,21.8c-1.9,0-3.5-1.6-3.5-3.5s1.6-3.5,3.5-3.5c1.9,0,3.5,1.6,3.5,3.5S35.9,21.8,34,21.8z M18,21.8     c-1.9,0-3.5-1.6-3.5-3.5s1.6-3.5,3.5-3.5s3.5,1.6,3.5,3.5S19.9,21.8,18,21.8z" fill="#00a8c6"/>
			<path class="st3" d="M34,15.3c1.7,0,3,1.3,3,3s-1.3,3-3,3s-3-1.3-3-3S32.3,15.3,34,15.3 M18,15.3c1.7,0,3,1.3,3,3s-1.3,3-3,3     s-3-1.3-3-3S16.3,15.3,18,15.3 M34,14.3c-2.2,0-4,1.8-4,4s1.8,4,4,4s4-1.8,4-4S36.2,14.3,34,14.3L34,14.3z M18,14.3     c-2.2,0-4,1.8-4,4s1.8,4,4,4s4-1.8,4-4S20.2,14.3,18,14.3L18,14.3z" fill="#00a8c6"/>
		</g>
	</g>
</g>
<g>
	<rect y="36.9" class="st4" width="52" height="9.9" fill="#00a8c6"/>
	<path class="st3" d="M5.7,41.7l-0.9-0.5c-0.6-0.3-1-0.7-1.2-1S3.3,39.4,3.3,39c0-0.6,0.2-1.2,0.7-1.6s1-0.6,1.7-0.6   c0.7,0,1.3,0.2,1.9,0.6v1.3c-0.6-0.6-1.2-0.9-1.9-0.9c-0.4,0-0.7,0.1-0.9,0.3s-0.4,0.4-0.4,0.7c0,0.2,0.1,0.5,0.3,0.7   c0.2,0.2,0.5,0.4,0.9,0.7l0.9,0.5c1,0.6,1.5,1.4,1.5,2.3c0,0.7-0.2,1.2-0.7,1.6s-1,0.6-1.7,0.6c-0.8,0-1.5-0.2-2.2-0.7V43   c0.6,0.8,1.4,1.2,2.2,1.2c0.4,0,0.7-0.1,0.9-0.3s0.4-0.5,0.4-0.8C6.8,42.6,6.5,42.1,5.7,41.7z" fill="#00a8c6"/>
	<path class="st3" d="M12.2,36.9h6.8v1h-2.9v7.2H15V38h-2.8V36.9z" fill="#00a8c6"/>
	<path class="st3" d="M23.9,45.1v-8.2H26c0.8,0,1.5,0.2,2,0.6s0.7,1,0.7,1.7c0,0.5-0.1,0.9-0.4,1.2s-0.6,0.6-1,0.8   c0.3,0.2,0.5,0.4,0.8,0.7s0.6,0.8,1.1,1.6c0.3,0.5,0.5,0.8,0.7,1l0.4,0.6h-1.4l-0.4-0.5c0,0,0-0.1-0.1-0.1l-0.2-0.3l-0.4-0.6   l-0.4-0.6c-0.2-0.3-0.5-0.6-0.7-0.8c-0.2-0.2-0.4-0.3-0.5-0.4c-0.2-0.1-0.4-0.1-0.8-0.1h-0.3v3.6H23.9z M25.5,37.9h-0.4v2.6h0.4   c0.6,0,1-0.1,1.2-0.2s0.4-0.3,0.5-0.5s0.2-0.4,0.2-0.7c0-0.3-0.1-0.5-0.2-0.7s-0.3-0.4-0.6-0.4S26,37.9,25.5,37.9z" fill="#00a8c6"/>
	<path class="st3" d="M34.9,36.9h1.2v8.2h-1.2V36.9z" fill="#00a8c6"/>
	<path class="st3" d="M47.5,36.9h1.4l-3.3,3.9l3.5,4.2h-1.4L45,41.7l-2.8,3.4h-1.4l3.5-4.2L41,36.9h1.4l2.6,3.1L47.5,36.9z" fill="#00a8c6"/>
</g>
</svg>